<?xml version="1.0" encoding="utf-8" ?>
<svg baseProfile="full" height="100%" version="1.1" width="100%" xmlns="http://www.w3.org/2000/svg" xmlns:ev="http://www.w3.org/2001/xml-events" xmlns:xlink="http://www.w3.org/1999/xlink"><defs /><g id="wires"><polyline fill="none" points="20,210 20,170 20,170 145,45 145,20" stroke="#78451c" stroke-linejoin="round" stroke-width="10" /><text font-size="10" x="17.0" y="220">1</text><text font-size="10" x="136.0" y="16.0">SDI</text><polyline fill="none" points="70,210 70,170 70,170 95,145 95,20" stroke="#f19707" stroke-linejoin="round" stroke-width="10" /><text font-size="10" x="67.0" y="220">3</text><text font-size="10" x="86.0" y="16.0">SCK</text><polyline fill="none" points="45,210 45,170 45,170 20,145 20,20" stroke="#fc4b50" stroke-linejoin="round" stroke-width="10" /><text font-size="10" x="42.0" y="220">2</text><text font-size="10" x="11.0" y="16.0">Vin</text><polyline fill="none" points="145,210 145,170 145,170 70,95 70,20" stroke="#3173df" stroke-linejoin="round" stroke-width="10" /><text font-size="10" x="142.0" y="220">6</text><text font-size="10" x="61.0" y="16.0">GND</text><polyline fill="none" points="95,210 95,170" stroke="#f7e708" stroke-linejoin="round" stroke-width="10" /><text font-size="10" x="92.0" y="220">4</text><polyline fill="none" points="120,210 120,170" stroke="#6cd104" stroke-linejoin="round" stroke-width="10" /><text font-size="10" x="117.0" y="220">5</text><polyline fill="none" points="170,210 170,170" stroke="#8a2bdc" stroke-linejoin="round" stroke-width="10" /><text font-size="10" x="167.0" y="220">7</text><polyline fill="none" points="195,210 195,170" stroke="#b6b6b6" stroke-linejoin="round" stroke-width="10" /><text font-size="10" x="192.0" y="220">8</text><polyline fill="none" points="220,210 220,170" stroke="#e4e4e4" stroke-linejoin="round" stroke-width="10" /><text font-size="10" x="217.0" y="220">9</text><polyline fill="none" points="245,210 245,170" stroke="#3a3b3a" stroke-linejoin="round" stroke-width="10" /><text font-size="10" x="238.0" y="220">10</text></g></svg>